<svg width="17" height="14" viewBox="0 0 17 14" fill="none" xmlns="http://www.w3.org/2000/svg">
<path d="M14.1907 0.793945C14.8487 0.793945 15.4798 1.05132 15.9451 1.50945C16.4104 1.96758 16.6718 2.58894 16.6718 3.23684V11.0541C16.6718 11.702 16.4104 12.3233 15.9451 12.7815C15.4798 13.2396 14.8487 13.497 14.1907 13.497H3.27403C2.61601 13.497 1.98494 13.2396 1.51965 12.7815C1.05437 12.3233 0.792969 11.702 0.792969 11.0541V3.23684C0.792969 2.58894 1.05437 1.96758 1.51965 1.50945C1.98494 1.05132 2.61601 0.793945 3.27403 0.793945H14.1907ZM15.6793 4.66446L8.98444 8.54377C8.92114 8.58036 8.85039 8.60267 8.77729 8.60909C8.70418 8.61551 8.63054 8.60589 8.56167 8.5809L8.48029 8.54377L1.78539 4.66642V11.0541C1.78539 11.4428 1.94223 11.8156 2.2214 12.0905C2.50058 12.3654 2.87922 12.5198 3.27403 12.5198H14.1907C14.5855 12.5198 14.9641 12.3654 15.2433 12.0905C15.5225 11.8156 15.6793 11.4428 15.6793 11.0541V4.66446ZM14.1907 1.7711H3.27403C2.87922 1.7711 2.50058 1.92553 2.2214 2.2004C1.94223 2.47528 1.78539 2.8481 1.78539 3.23684V3.53194L8.73236 7.55587L15.6793 3.52998V3.23684C15.6793 2.8481 15.5225 2.47528 15.2433 2.2004C14.9641 1.92553 14.5855 1.7711 14.1907 1.7711V1.7711Z" fill="#5F5C5C"/>
</svg>
