<svg width="16" height="16" viewBox="0 0 16 16" fill="none" xmlns="http://www.w3.org/2000/svg">
<path d="M6.76923 2.28571H9.23077C9.23077 1.98261 9.1011 1.69192 8.87029 1.47759C8.63947 1.26327 8.32642 1.14286 8 1.14286C7.67358 1.14286 7.36053 1.26327 7.12972 1.47759C6.8989 1.69192 6.76923 1.98261 6.76923 2.28571ZM5.53846 2.28571C5.53846 1.67951 5.7978 1.09812 6.25943 0.66947C6.72106 0.240816 7.34716 0 8 0C8.65284 0 9.27894 0.240816 9.74057 0.66947C10.2022 1.09812 10.4615 1.67951 10.4615 2.28571H15.3846C15.5478 2.28571 15.7044 2.34592 15.8198 2.45308C15.9352 2.56025 16 2.70559 16 2.85714C16 3.0087 15.9352 3.15404 15.8198 3.2612C15.7044 3.36837 15.5478 3.42857 15.3846 3.42857H14.6905L13.2074 13.5291C13.1068 14.2136 12.7425 14.8411 12.182 15.2954C11.6215 15.7497 10.9027 16 10.1588 16H5.84123C5.09725 16 4.37847 15.7497 3.81797 15.2954C3.25747 14.8411 2.8932 14.2136 2.79262 13.5291L1.30954 3.42857H0.615385C0.452174 3.42857 0.295649 3.36837 0.180242 3.2612C0.064835 3.15404 0 3.0087 0 2.85714C0 2.70559 0.064835 2.56025 0.180242 2.45308C0.295649 2.34592 0.452174 2.28571 0.615385 2.28571H5.53846ZM6.76923 6.28571C6.76923 6.13416 6.7044 5.98882 6.58899 5.88165C6.47358 5.77449 6.31706 5.71429 6.15385 5.71429C5.99064 5.71429 5.83411 5.77449 5.7187 5.88165C5.6033 5.98882 5.53846 6.13416 5.53846 6.28571V12C5.53846 12.1516 5.6033 12.2969 5.7187 12.4041C5.83411 12.5112 5.99064 12.5714 6.15385 12.5714C6.31706 12.5714 6.47358 12.5112 6.58899 12.4041C6.7044 12.2969 6.76923 12.1516 6.76923 12V6.28571ZM9.84615 5.71429C10.0094 5.71429 10.1659 5.77449 10.2813 5.88165C10.3967 5.98882 10.4615 6.13416 10.4615 6.28571V12C10.4615 12.1516 10.3967 12.2969 10.2813 12.4041C10.1659 12.5112 10.0094 12.5714 9.84615 12.5714C9.68294 12.5714 9.52642 12.5112 9.41101 12.4041C9.2956 12.2969 9.23077 12.1516 9.23077 12V6.28571C9.23077 6.13416 9.2956 5.98882 9.41101 5.88165C9.52642 5.77449 9.68294 5.71429 9.84615 5.71429ZM4.01231 13.3749C4.07271 13.7855 4.29125 14.1619 4.6275 14.4344C4.96375 14.7069 5.39492 14.8571 5.84123 14.8571H10.1588C10.6053 14.8574 11.0368 14.7073 11.3733 14.4348C11.7098 14.1622 11.9285 13.7857 11.9889 13.3749L13.4486 3.42857H2.55138L4.01231 13.3749Z" fill="#5F5C5C"/>
</svg>
