<svg width="13" height="13" viewBox="0 0 13 13" fill="none" xmlns="http://www.w3.org/2000/svg">
<path d="M0.71617 13C0.617202 12.9998 0.519352 12.9791 0.428843 12.939C0.338334 12.899 0.257146 12.8405 0.190442 12.7674C0.122531 12.6949 0.070711 12.6088 0.0383793 12.5149C0.00604754 12.4209 -0.00606529 12.3212 0.00283487 12.2222L0.177602 10.3L8.25112 2.22713L10.7742 4.75017L2.70281 12.8223L0.781083 12.9971C0.759503 12.9991 0.737841 13.0001 0.71617 13ZM11.2778 4.2457L8.75545 1.72266L10.2684 0.209269C10.3347 0.142927 10.4134 0.090298 10.5 0.0543902C10.5866 0.0184823 10.6794 0 10.7731 0C10.8669 0 10.9597 0.0184823 11.0463 0.0543902C11.1329 0.090298 11.2116 0.142927 11.2778 0.209269L12.7908 1.72266C12.8571 1.78893 12.9097 1.86763 12.9456 1.95425C12.9815 2.04087 13 2.13372 13 2.22749C13 2.32125 12.9815 2.4141 12.9456 2.50073C12.9097 2.58735 12.8571 2.66604 12.7908 2.73231L11.2785 4.24499L11.2778 4.2457Z" fill="#5F5C5C"/>
</svg>
