<svg width="14" height="16" viewBox="0 0 14 16" fill="none" xmlns="http://www.w3.org/2000/svg">
<path d="M7.16029 9.58801V11.038C6.54688 10.816 5.89038 10.7479 5.24593 10.8394C4.60148 10.931 3.98789 11.1795 3.45669 11.564C2.92549 11.9486 2.4922 12.458 2.19319 13.0496C1.89418 13.6411 1.73818 14.2974 1.73831 14.9634L0.382813 14.9627C0.382602 14.1155 0.571851 13.2795 0.936057 12.5188C1.30026 11.7581 1.82976 11.0928 2.48398 10.5739C3.13819 10.055 3.89977 9.69633 4.71034 9.52532C5.52091 9.35431 6.35896 9.37621 7.16029 9.58801ZM5.8048 8.7194C3.55806 8.7194 1.73831 6.8566 1.73831 4.55672C1.73831 2.25684 3.55806 0.394043 5.8048 0.394043C8.05153 0.394043 9.87128 2.25684 9.87128 4.55672C9.87128 6.8566 8.05153 8.7194 5.8048 8.7194ZM5.8048 7.33184C7.30262 7.33184 8.51579 6.08997 8.51579 4.55672C8.51579 3.02347 7.30262 1.7816 5.8048 1.7816C4.30697 1.7816 3.0938 3.02347 3.0938 4.55672C3.0938 6.08997 4.30697 7.33184 5.8048 7.33184ZM9.73099 13.5162L12.1268 11.0637L13.0858 12.0447L9.73099 15.4789L7.33447 13.0257L8.29349 12.0447L9.73099 13.5162Z" fill="#5F5C5C"/>
</svg>
