<svg width="15" height="15" viewBox="0 0 15 15" fill="none" xmlns="http://www.w3.org/2000/svg">
<path fill-rule="evenodd" clip-rule="evenodd" d="M1.82863 1.88235H11.7701V7.28114H13.0128V0.636475H0.585938V10.6035C0.585938 11.044 0.760505 11.4666 1.07124 11.7781C1.38197 12.0896 1.80341 12.2646 2.24285 12.2646H8.04206V11.0188H2.24285C2.13299 11.0188 2.02763 10.975 1.94995 10.8971C1.87227 10.8192 1.82863 10.7136 1.82863 10.6035V1.88235ZM10.5274 3.54351H3.07131V4.78939H10.5274V3.54351ZM6.38515 6.03526H3.07131V7.28114H6.38515V6.03526ZM9.28475 7.28114H8.45629V8.11172H9.28475V7.28114ZM8.45629 6.03526H7.21361V9.35759H10.5274V6.03526H9.28475H8.45629ZM6.38515 8.11172H3.07131V9.35759H6.38515V8.11172ZM11.7701 9.14995H13.0128V11.0188H14.8768V12.2646H13.0128V14.1334H11.7701V12.2646H9.9061V11.0188H11.7701V9.14995Z" fill="#5F5C5C"/>
</svg>
