<svg width="18" height="17" viewBox="0 0 18 17" fill="none" xmlns="http://www.w3.org/2000/svg">
<path d="M0.650391 0.889535L1.44141 0L15.7676 16.1006L14.9678 17L10.9512 12.4831C10.6348 12.7138 10.3271 12.8884 10.0283 13.007C9.72949 13.1256 9.38672 13.1849 9 13.1849C8.53125 13.1849 8.0918 13.086 7.68164 12.8884C7.27148 12.6907 6.91406 12.4205 6.60938 12.0779C6.30469 11.7353 6.06445 11.3333 5.88867 10.8721C5.71289 10.4109 5.625 9.91667 5.625 9.38953C5.625 8.96124 5.67773 8.57907 5.7832 8.24302C5.88867 7.90698 6.04395 7.55775 6.24902 7.19535L3.43652 4.03256C2.7041 4.72442 2.13574 5.51841 1.73145 6.41454C1.32715 7.31066 1.125 8.30233 1.125 9.38953H0C0 8.78992 0.0615234 8.20019 0.18457 7.62035C0.307617 7.0405 0.483398 6.48043 0.711914 5.94012C0.94043 5.39981 1.21582 4.89574 1.53809 4.42791C1.86035 3.96008 2.22949 3.53178 2.64551 3.14302L0.650391 0.889535ZM6.75 9.38953C6.75 9.73876 6.80859 10.0649 6.92578 10.368C7.04297 10.6711 7.2041 10.9413 7.40918 11.1785C7.61426 11.4157 7.85156 11.5969 8.12109 11.7221C8.39062 11.8473 8.68359 11.9132 9 11.9198C9.21094 11.9198 9.40723 11.8901 9.58887 11.8308C9.77051 11.7715 9.95215 11.6826 10.1338 11.564L7.06641 8.11454C6.9668 8.3188 6.89062 8.52306 6.83789 8.72733C6.78516 8.93159 6.75586 9.15233 6.75 9.38953ZM9.63281 6.96802L8.46387 5.65349L8.72754 5.61395C8.81543 5.60078 8.90625 5.59419 9 5.59419C9.46289 5.59419 9.89941 5.69302 10.3096 5.8907C10.7197 6.08837 11.0771 6.35853 11.3818 6.70116C11.6865 7.0438 11.9297 7.44903 12.1113 7.91686C12.293 8.38469 12.3809 8.87558 12.375 9.38953C12.375 9.48837 12.3691 9.58721 12.3574 9.68605C12.3457 9.78488 12.334 9.88702 12.3223 9.99244L11.1533 8.67791C10.9072 7.81473 10.4004 7.24477 9.63281 6.96802ZM18 9.38953H16.875C16.875 8.61202 16.7695 7.88391 16.5586 7.20523C16.3477 6.52655 16.0576 5.90717 15.6885 5.34709C15.3193 4.78702 14.8799 4.28624 14.3701 3.84477C13.8604 3.40329 13.3184 3.03101 12.7441 2.72791C12.1699 2.42481 11.5605 2.19419 10.916 2.03605C10.2715 1.87791 9.63281 1.79884 9 1.79884C8.42578 1.79884 7.86328 1.86143 7.3125 1.98663C6.76172 2.11182 6.21973 2.29632 5.68652 2.54012L4.8252 1.57151C5.50488 1.22229 6.18164 0.962016 6.85547 0.790698C7.5293 0.61938 8.24414 0.533721 9 0.533721C9.84375 0.533721 10.6787 0.649031 11.5049 0.879651C12.3311 1.11027 13.1074 1.4562 13.834 1.91744C14.5605 2.37868 15.2227 2.93876 15.8203 3.59767C16.418 4.25659 16.9043 5.02752 17.2793 5.91047C17.5137 6.45078 17.6924 7.01415 17.8154 7.60058C17.9385 8.18702 18 8.78333 18 9.38953Z" fill="#5F5C5C"/>
</svg>
