<svg width="16" height="16" viewBox="0 0 16 16" fill="none" xmlns="http://www.w3.org/2000/svg">
<path d="M8.12849 3.55148L7.45248 2.84932C5.8657 1.20111 2.95612 1.76989 1.9058 3.84206C1.4127 4.8167 1.30145 6.22387 2.20185 8.01976C3.06926 9.74895 4.87384 11.8202 8.12849 14.0762C11.3831 11.8202 13.1868 9.74895 14.0551 8.01976C14.9555 6.22292 14.8452 4.8167 14.3512 3.84206C13.3009 1.76989 10.3913 1.20016 8.8045 2.84837L8.12849 3.55148ZM8.12849 15.2243C-6.32795 5.57126 3.67738 -1.96289 7.96255 2.02236C8.01912 2.07476 8.07475 2.12906 8.12849 2.18528C8.18169 2.12912 8.23704 2.07509 8.29443 2.02331C12.5787 -1.96479 22.5849 5.5703 8.12849 15.2243Z" fill="#5F5C5C"/>
</svg>
