<svg width="15" height="15" viewBox="0 0 15 15" fill="none" xmlns="http://www.w3.org/2000/svg">
<path d="M11.514 1.54882C10.845 1.54882 10.2033 1.81467 9.73018 2.28787C9.25708 2.76108 8.99129 3.40289 8.99129 4.0721C8.99129 4.74132 9.25708 5.38313 9.73018 5.85634C10.2033 6.32954 10.845 6.59539 11.514 6.59539C11.9007 6.59539 12.2621 6.50712 12.5924 6.34907C12.693 6.30114 12.8086 6.29515 12.9136 6.33244C13.0187 6.36972 13.1046 6.44722 13.1526 6.54789C13.2005 6.64856 13.2065 6.76414 13.1692 6.86922C13.1319 6.9743 13.0544 7.06026 12.9538 7.1082C12.5167 7.31669 12.0318 7.43606 11.514 7.43606C10.8491 7.43606 10.199 7.23888 9.6461 6.86944C9.09316 6.5 8.66214 5.97488 8.40752 5.36047C8.1529 4.74606 8.08611 4.06994 8.21559 3.41757C8.34507 2.7652 8.66502 2.16587 9.13498 1.69533C9.60494 1.2248 10.2038 0.904188 10.8559 0.774026C11.508 0.643863 12.1841 0.709993 12.7986 0.964056C13.4131 1.21812 13.9386 1.64871 14.3085 2.2014C14.6784 2.75409 14.8762 3.40406 14.8768 4.06916V4.4895C14.8771 4.74802 14.7979 5.00038 14.6501 5.21245C14.5023 5.42451 14.2929 5.58604 14.0503 5.67518C13.8077 5.76432 13.5435 5.77678 13.2936 5.71086C13.0437 5.64495 12.82 5.50384 12.6529 5.30664C12.4231 5.51869 12.1386 5.66242 11.8316 5.72166C11.5246 5.7809 11.2071 5.75331 10.9149 5.64199C10.6226 5.53066 10.3673 5.34002 10.1774 5.09149C9.98759 4.84296 9.87082 4.54639 9.84025 4.23513C9.80968 3.92386 9.86652 3.61024 10.0044 3.32951C10.1422 3.04878 10.3556 2.81207 10.6206 2.646C10.8856 2.47993 11.1916 2.39107 11.5043 2.38942C11.817 2.38777 12.124 2.47339 12.3907 2.63665C12.4304 2.54939 12.4988 2.47834 12.5845 2.4353C12.6702 2.39226 12.768 2.37982 12.8617 2.40004C12.9554 2.42026 13.0394 2.47193 13.0997 2.54647C13.1601 2.621 13.1931 2.71393 13.1933 2.80983V4.4895C13.1933 4.60131 13.2377 4.70855 13.3168 4.78761C13.3958 4.86668 13.5031 4.9111 13.6148 4.9111C13.7266 4.9111 13.8338 4.86668 13.9129 4.78761C13.9919 4.70855 14.0364 4.60131 14.0364 4.4895V4.07253C14.0365 3.74108 13.9713 3.41285 13.8445 3.10661C13.7178 2.80037 13.5319 2.52212 13.2976 2.28775C13.0633 2.05338 12.7851 1.86749 12.4789 1.7407C12.1727 1.61391 11.8446 1.54871 11.5132 1.54882H11.514ZM10.6719 4.07084C10.6719 4.2938 10.7604 4.50763 10.918 4.66529C11.0757 4.82295 11.2894 4.91152 11.5124 4.91152C11.7353 4.91152 11.949 4.82295 12.1067 4.66529C12.2643 4.50763 12.3528 4.2938 12.3528 4.07084C12.3528 3.84788 12.2643 3.63405 12.1067 3.4764C11.949 3.31874 11.7353 3.23017 11.5124 3.23017C11.2894 3.23017 11.0757 3.31874 10.918 3.4764C10.7604 3.63405 10.6719 3.84788 10.6719 4.07084ZM14.0338 10.1876V7.43354C13.7736 7.62923 13.4916 7.79399 13.1933 7.9245V10.1876C13.1933 10.9047 12.6016 11.5041 11.8485 11.5041H7.71332L4.12105 14.1589H4.11601V11.5041H2.77122C2.01814 11.5041 1.42643 10.9047 1.42643 10.1876V4.54667C1.42643 3.82957 2.01814 3.23017 2.77122 3.23017H7.39393C7.45277 2.93761 7.5427 2.65599 7.65953 2.38949H2.77122C1.56427 2.38949 0.585938 3.35543 0.585938 4.54667V10.1876C0.585938 11.3797 1.56427 12.3448 2.77122 12.3448H3.27552V14.1699C3.27552 14.3489 3.33435 14.523 3.44361 14.6667C3.72098 15.0341 4.24797 15.1089 4.61946 14.8348L7.99068 12.3448H11.8485C13.0555 12.3448 14.0338 11.3788 14.0338 10.1876Z" fill="#5F5C5C"/>
</svg>
