<svg width="16" height="15" viewBox="0 0 16 15" fill="none" xmlns="http://www.w3.org/2000/svg">
<path d="M15.0883 14.9515C14.9958 14.9528 14.9046 14.929 14.8242 14.8825C14.7437 14.8359 14.6769 14.7684 14.6307 14.6868C13.938 13.4859 12.9508 12.4886 11.7656 11.7926C10.5805 11.0967 9.23805 10.726 7.86984 10.7169V13.8928C7.86933 13.9974 7.83843 14.0994 7.78105 14.186C7.72367 14.2727 7.64237 14.3401 7.5474 14.3798C7.45269 14.4204 7.34831 14.4314 7.24742 14.4117C7.14653 14.3919 7.05366 14.3421 6.98053 14.2687L0.739771 7.91675C0.691027 7.86754 0.652337 7.809 0.625934 7.7445C0.599531 7.67999 0.585938 7.61081 0.585938 7.54093C0.585937 7.47105 0.599531 7.40187 0.625934 7.33736C0.652337 7.27286 0.691027 7.21432 0.739771 7.16511L6.98053 0.813189C7.05366 0.739741 7.14653 0.689986 7.24742 0.670203C7.34831 0.65042 7.45269 0.661495 7.5474 0.702031C7.64237 0.741741 7.72367 0.809176 7.78105 0.895837C7.83843 0.982499 7.86933 1.08451 7.86984 1.18901V4.4232C10.0214 4.70447 11.9992 5.77242 13.4344 7.428C14.8696 9.08358 15.6645 11.2138 15.6708 13.4217C15.6696 13.7757 15.647 14.1293 15.6032 14.4804C15.5902 14.5905 15.5435 14.6937 15.4698 14.7754C15.3961 14.8571 15.299 14.9131 15.1923 14.9356L15.0883 14.9515ZM7.60981 9.65824C8.93618 9.63885 10.2509 9.91279 11.4631 10.4611C12.6752 11.0095 13.756 11.8191 14.6307 12.8342C14.4742 10.914 13.6507 9.11337 12.3078 7.75529C10.9649 6.39722 9.19053 5.57057 7.30297 5.42362C7.17331 5.4117 7.05275 5.35071 6.96513 5.2527C6.8775 5.1547 6.82918 5.02681 6.82971 4.8943V2.46469L1.84231 7.54093L6.82971 12.6172V10.1876C6.82971 10.0472 6.8845 9.91254 6.98203 9.81327C7.07957 9.714 7.21185 9.65824 7.34977 9.65824H7.63061H7.60981Z" fill="#5F5C5C"/>
</svg>
