<svg width="14" height="16" viewBox="0 0 14 16" fill="none" xmlns="http://www.w3.org/2000/svg">
<path d="M10.9687 15.0243C10.3806 15.0243 9.88068 14.8159 9.46901 14.3991C9.05734 13.9823 8.8515 13.4761 8.8515 12.8807C8.8515 12.7973 8.85738 12.7108 8.86914 12.6213C8.88091 12.5322 8.89855 12.4519 8.92207 12.3805L3.94672 9.45085C3.74676 9.62949 3.52328 9.7693 3.27628 9.87029C3.02928 9.97176 2.77051 10.0225 2.49998 10.0225C1.91188 10.0225 1.41199 9.81408 1.00032 9.39726C0.588649 8.98044 0.382812 8.47431 0.382812 7.87885C0.382812 7.2834 0.588649 6.77726 1.00032 6.36044C1.41199 5.94363 1.91188 5.73522 2.49998 5.73522C2.77051 5.73522 3.02928 5.78571 3.27628 5.8867C3.52328 5.98817 3.74676 6.12822 3.94672 6.30685L8.92207 3.37722C8.89855 3.30576 8.88091 3.22549 8.86914 3.13641C8.85738 3.04686 8.8515 2.9604 8.8515 2.87703C8.8515 2.28158 9.05734 1.77544 9.46901 1.35863C9.88068 0.941808 10.3806 0.733398 10.9687 0.733398C11.5568 0.733398 12.0567 0.941808 12.4683 1.35863C12.88 1.77544 13.0858 2.28158 13.0858 2.87703C13.0858 3.47249 12.88 3.97863 12.4683 4.39544C12.0567 4.81226 11.5568 5.02067 10.9687 5.02067C10.6981 5.02067 10.4394 4.96994 10.1924 4.86847C9.94537 4.76748 9.72189 4.62767 9.52194 4.44903L4.54658 7.37867C4.57011 7.45013 4.58775 7.53039 4.59951 7.61947C4.61128 7.70903 4.61716 7.79549 4.61716 7.87885C4.61716 7.96222 4.61128 8.04844 4.59951 8.13752C4.58775 8.22708 4.57011 8.30758 4.54658 8.37903L9.52194 11.3087C9.72189 11.13 9.94537 10.99 10.1924 10.8885C10.4394 10.7875 10.6981 10.737 10.9687 10.737C11.5568 10.737 12.0567 10.9454 12.4683 11.3623C12.88 11.7791 13.0858 12.2852 13.0858 12.8807C13.0858 13.4761 12.88 13.9823 12.4683 14.3991C12.0567 14.8159 11.5568 15.0243 10.9687 15.0243ZM10.9687 3.59158C11.1686 3.59158 11.3361 3.52322 11.4711 3.38651C11.6066 3.24931 11.6744 3.07949 11.6744 2.87703C11.6744 2.67458 11.6066 2.50476 11.4711 2.36756C11.3361 2.23085 11.1686 2.16249 10.9687 2.16249C10.7687 2.16249 10.6012 2.23085 10.4662 2.36756C10.3307 2.50476 10.2629 2.67458 10.2629 2.87703C10.2629 3.07949 10.3307 3.24931 10.4662 3.38651C10.6012 3.52322 10.7687 3.59158 10.9687 3.59158ZM2.49998 8.5934C2.69994 8.5934 2.86767 8.5248 3.00317 8.38761C3.13819 8.25089 3.20571 8.08131 3.20571 7.87885C3.20571 7.6764 3.13819 7.50657 3.00317 7.36938C2.86767 7.23267 2.69994 7.16431 2.49998 7.16431C2.30003 7.16431 2.1323 7.23267 1.9968 7.36938C1.86177 7.50657 1.79426 7.6764 1.79426 7.87885C1.79426 8.08131 1.86177 8.25089 1.9968 8.38761C2.1323 8.5248 2.30003 8.5934 2.49998 8.5934ZM10.9687 13.5952C11.1686 13.5952 11.3361 13.5266 11.4711 13.3894C11.6066 13.2527 11.6744 13.0831 11.6744 12.8807C11.6744 12.6782 11.6066 12.5086 11.4711 12.3719C11.3361 12.2347 11.1686 12.1661 10.9687 12.1661C10.7687 12.1661 10.6012 12.2347 10.4662 12.3719C10.3307 12.5086 10.2629 12.6782 10.2629 12.8807C10.2629 13.0831 10.3307 13.2527 10.4662 13.3894C10.6012 13.5266 10.7687 13.5952 10.9687 13.5952Z" fill="#5F5C5C"/>
</svg>
