<svg width="18" height="14" viewBox="0 0 18 14" fill="none" xmlns="http://www.w3.org/2000/svg">
<path d="M14.3994 7.98956L14.3992 7.98937C14.1675 7.76554 13.8482 7.63675 13.5102 7.63675H11.3458C11.1224 7.63675 10.9724 7.80609 10.9724 7.98036V10.0683C10.9724 10.3784 11.0984 10.6763 11.33 10.9L14.3994 7.98956ZM14.3994 7.98956L16.8638 10.3673L14.3994 7.98956ZM13.7946 13.2779L11.3302 10.9002L16.864 10.3675C17.0011 10.5002 17.0012 10.7053 16.8625 10.8382L16.861 10.8396L14.3364 13.2781C14.189 13.4205 13.9422 13.4205 13.7948 13.2781L13.7946 13.2779ZM11.0669 8.82132C11.0669 9.46429 11.5993 9.95402 12.2219 9.95402C12.846 9.95402 13.377 9.46033 13.377 8.82132C13.377 8.17835 12.8446 7.68862 12.2219 7.68862C11.5993 7.68862 11.0669 8.17835 11.0669 8.82132ZM9.10723 3.75971C9.10723 5.33119 7.78368 6.63412 6.11369 6.63412C4.44345 6.63412 3.12015 5.33094 3.12015 3.76235C3.12015 2.19087 4.44371 0.887939 6.11369 0.887939C7.78394 0.887939 9.10723 2.19112 9.10723 3.75971ZM11.1845 13.3387C11.101 13.3674 11.0112 13.3829 10.9173 13.3829H1.31008C0.846455 13.3829 0.5 13.0238 0.5 12.6175V11.5208C0.5 9.8572 1.90273 8.47738 3.66887 8.47508H4.02108C4.66408 8.74432 5.36974 8.89688 6.11369 8.89688C6.857 8.89688 7.56516 8.74457 8.20667 8.47508H8.55917C8.7401 8.47508 8.92009 8.49565 9.10177 8.53115V10.0656C9.10177 10.8814 9.43171 11.6458 10.0213 12.2153L11.1845 13.3387Z" stroke="#5F5C5C"/>
</svg>
