<?xml version="1.0" standalone="no"?>
<!DOCTYPE svg PUBLIC "-//W3C//DTD SVG 20010904//EN"
 "http://www.w3.org/TR/2001/REC-SVG-20010904/DTD/svg10.dtd">
<svg version="1.0" xmlns="http://www.w3.org/2000/svg"
 width="1192.000000pt" height="1192.000000pt" viewBox="0 0 1192.000000 1192.000000"
 preserveAspectRatio="xMidYMid meet">
<metadata>
Created by potrace 1.14, written by Peter Selinger 2001-2017
</metadata>
<g transform="translate(0.000000,1192.000000) scale(0.100000,-0.100000)"
fill="#000000" stroke="none">
<path d="M8659 8196 c-2 -2 -17 -6 -34 -9 -158 -26 -351 -164 -436 -312 -79
-136 -109 -242 -113 -400 -4 -135 19 -262 67 -367 15 -32 23 -58 18 -58 -4 0
-33 5 -62 11 -143 28 -275 15 -391 -39 -67 -31 -131 -79 -123 -92 3 -4 25 -11
50 -14 87 -14 179 -99 205 -191 37 -134 9 -226 -124 -420 -190 -276 -239 -409
-235 -641 2 -114 29 -271 64 -369 140 -402 525 -710 965 -772 66 -9 271 -9
320 0 116 21 147 29 217 52 102 34 189 83 289 160 516 403 625 1139 273 1839
-65 129 -203 340 -259 396 -3 3 -27 32 -55 65 -27 33 -59 71 -72 85 -12 14
-51 59 -86 102 -36 42 -80 93 -100 115 -135 146 -202 284 -206 424 -5 162 95
285 251 305 26 4 48 9 48 13 -1 20 -143 87 -209 97 -18 3 -43 8 -55 11 -27 6
-202 14 -207 9z m25 -1663 c89 -89 137 -152 179 -238 88 -181 95 -412 17 -571
-26 -54 -122 -164 -142 -164 -19 0 -6 -18 20 -29 146 -59 391 42 437 180 9 27
19 49 22 49 9 0 44 -42 75 -90 25 -39 39 -75 55 -140 11 -45 9 -203 -4 -264
-16 -76 -38 -114 -110 -189 -105 -110 -245 -191 -365 -212 -17 -3 -35 -8 -40
-11 -16 -10 -244 -12 -305 -3 -134 20 -273 87 -392 188 -91 76 -98 88 -107
156 -24 199 38 395 171 540 16 17 76 81 134 144 58 63 111 119 116 125 51 54
121 175 144 248 27 81 30 218 8 310 -18 71 -11 69 87 -29z"/>
<path d="M1330 7754 c-332 -59 -602 -201 -858 -447 -265 -258 -424 -577 -460
-927 -12 -121 -5 -350 13 -435 3 -11 7 -32 10 -47 26 -143 67 -254 158 -436
61 -122 153 -240 292 -377 269 -266 580 -413 928 -441 252 -21 427 2 675 88
266 92 385 170 390 256 3 52 -9 77 -49 98 -43 22 -80 23 -109 3 -108 -73 -352
-171 -496 -198 -119 -23 -299 -30 -414 -17 -199 22 -416 102 -569 211 -416
295 -617 672 -606 1140 2 72 6 141 9 155 3 14 9 41 12 60 31 174 153 463 236
560 88 102 209 218 293 281 165 125 394 224 561 244 21 3 57 8 79 11 58 10
226 6 298 -6 205 -35 322 -72 488 -156 80 -41 152 -74 161 -74 80 0 132 87 97
162 -18 41 -214 154 -368 213 -81 30 -190 61 -251 70 -25 4 -65 10 -90 15 -68
13 -345 9 -430 -6z"/>
<path d="M10008 7756 c-10 -7 -25 -30 -34 -51 -14 -34 -15 -190 -15 -1506 0
-1320 1 -1471 16 -1498 18 -37 56 -64 89 -63 36 0 92 31 105 58 8 17 11 162
11 484 l0 458 192 124 c105 68 200 126 210 130 32 13 55 -5 146 -119 50 -62
96 -119 104 -127 7 -9 18 -21 23 -28 122 -156 145 -185 160 -202 23 -26 453
-567 482 -608 47 -64 124 -139 157 -153 33 -14 78 -5 106 20 21 19 41 81 32
103 -3 9 -42 62 -86 118 -45 56 -133 168 -196 249 -63 81 -120 152 -125 158
-6 7 -133 168 -283 359 -329 419 -318 389 -179 468 50 28 221 137 378 241 157
104 289 189 292 189 13 0 134 85 170 118 33 32 36 40 31 72 -21 113 -85 138
-193 73 -158 -97 -825 -531 -1279 -834 -73 -49 -135 -89 -137 -89 -3 0 -5 405
-5 901 0 602 -3 907 -10 920 -22 40 -126 63 -162 35z"/>
<path d="M6898 7650 c-43 -34 -48 -81 -48 -484 l0 -376 -151 0 c-174 0 -231
-11 -258 -49 -40 -57 -32 -107 23 -141 29 -17 46 -18 209 -13 l177 5 1 -689
c1 -744 0 -734 24 -849 2 -6 17 -39 34 -74 89 -179 229 -296 395 -330 79 -16
304 -17 334 -1 27 14 52 61 52 97 0 15 -9 41 -20 60 -22 34 -41 41 -115 43
-158 3 -242 14 -289 38 -63 32 -116 87 -148 155 -54 113 -53 101 -53 848 l0
695 250 0 c234 0 252 1 277 20 48 34 50 103 5 159 l-24 29 -255 -2 -255 -2 0
410 c0 449 3 431 -60 458 -45 18 -76 16 -105 -7z"/>
<path d="M3477 6844 c-1 -1 -24 -5 -51 -8 -162 -22 -353 -92 -469 -172 -234
-163 -405 -388 -466 -615 -32 -118 -33 -126 -37 -284 -3 -119 1 -168 16 -240
56 -267 169 -453 386 -639 236 -202 549 -287 856 -232 207 37 341 82 402 135
47 41 52 123 9 165 -42 42 -83 43 -166 6 -91 -41 -216 -79 -287 -87 -228 -27
-471 31 -621 149 -123 96 -222 221 -288 361 -41 85 -72 175 -63 181 4 2 399 4
878 4 l871 0 12 -56 c39 -184 119 -345 241 -486 195 -224 433 -354 705 -382
81 -8 193 -8 239 0 17 3 49 8 71 12 130 19 295 71 358 112 72 48 91 136 40
184 -43 41 -88 44 -159 13 -258 -116 -458 -130 -716 -49 -177 56 -368 228
-466 419 -49 98 -92 202 -92 225 0 4 423 8 940 8 1050 0 976 -5 1007 70 12 28
14 60 10 142 -8 159 -40 292 -100 420 -26 56 -99 175 -116 190 -3 3 -24 27
-45 54 -139 172 -336 303 -541 359 -130 35 -304 49 -415 32 -93 -13 -107 -16
-190 -41 -168 -51 -287 -119 -434 -248 -81 -72 -184 -197 -223 -273 l-28 -53
-17 23 c-10 12 -18 26 -18 30 0 21 -129 185 -201 257 -178 178 -389 279 -639
306 -52 5 -190 11 -193 8z m259 -247 c127 -24 312 -126 435 -239 112 -104 237
-371 242 -516 l2 -57 -868 0 -869 0 6 50 c13 120 87 310 162 415 45 64 168
181 240 230 80 53 176 93 274 113 65 14 311 17 376 4z m1994 -3 c133 -28 299
-119 419 -230 59 -54 144 -181 182 -270 11 -27 24 -58 29 -69 34 -76 58 -230
37 -237 -18 -6 -1725 -4 -1730 2 -8 8 21 146 48 226 33 97 62 154 119 231 134
183 317 306 517 347 91 18 288 18 379 0z"/>
<path d="M9344 4428 c-4 -13 -7 -58 -7 -100 l1 -77 -39 19 c-45 23 -125 26
-172 7 -161 -68 -186 -279 -45 -373 116 -78 261 -38 319 90 16 35 19 67 19
237 0 138 -3 198 -12 207 -20 20 -56 14 -64 -10z m-69 -238 c35 -22 65 -73 65
-111 0 -41 -39 -106 -73 -122 -64 -31 -150 -4 -184 56 -29 52 -9 135 43 176
35 28 105 28 149 1z"/>
<path d="M10544 4428 c-3 -12 -7 -139 -7 -281 0 -240 2 -261 19 -274 21 -15
24 -16 44 -3 12 7 16 39 20 145 l5 137 33 29 c35 31 81 38 125 18 44 -20 52
-46 57 -187 4 -103 8 -135 20 -142 20 -13 23 -12 45 3 16 12 18 29 18 138 -1
137 -11 176 -58 224 -55 54 -153 72 -215 40 l-30 -16 0 84 c0 51 -5 88 -12 95
-20 20 -56 14 -64 -10z"/>
<path d="M11511 4408 c-4 -13 -7 -47 -6 -76 1 -51 0 -53 -25 -50 -34 3 -50 -8
-50 -37 0 -26 29 -48 57 -43 15 3 17 -10 18 -123 1 -106 4 -131 20 -155 26
-41 44 -52 93 -60 49 -7 72 6 72 42 0 27 -7 33 -49 36 -49 4 -55 19 -56 140
-1 90 2 111 14 117 9 5 21 6 28 4 22 -8 53 17 53 43 0 27 -16 36 -63 38 l-32
1 0 60 c-1 34 -5 66 -9 73 -13 21 -56 14 -65 -10z"/>
<path d="M7363 4277 c-43 -16 -102 -73 -121 -117 -43 -100 8 -230 107 -278 46
-21 146 -21 189 2 28 14 33 15 38 2 8 -21 32 -28 55 -16 17 10 19 22 19 124 0
145 -5 166 -47 216 -63 73 -153 98 -240 67z m167 -105 c36 -35 40 -44 40 -87
0 -118 -116 -182 -209 -116 -68 48 -73 137 -11 202 34 35 42 39 88 39 46 0 56
-4 92 -38z"/>
<path d="M7881 4278 c-80 -14 -151 -78 -151 -136 0 -59 64 -98 194 -119 16 -3
40 -9 54 -14 l25 -10 -23 -24 c-45 -48 -114 -42 -170 15 -20 20 -35 28 -47 23
-20 -7 -33 -22 -33 -40 0 -21 54 -76 93 -93 109 -49 257 25 257 128 0 51 -37
75 -152 102 -57 13 -107 27 -111 31 -12 10 32 48 68 58 39 10 75 -3 110 -39
31 -32 54 -37 73 -18 20 20 13 46 -22 81 -45 45 -107 66 -165 55z"/>
<path d="M8442 4269 c-180 -91 -149 -356 47 -400 78 -17 171 14 171 58 0 34
-25 42 -85 25 -50 -14 -55 -14 -97 6 -50 25 -80 62 -51 63 10 0 82 1 161 2
162 2 166 4 157 76 -7 60 -47 126 -97 158 -56 38 -146 43 -206 12z m196 -113
c12 -18 22 -37 22 -43 0 -7 -43 -11 -125 -12 -137 -1 -140 1 -102 56 50 74
154 74 205 -1z"/>
<path d="M9600 4274 c-79 -34 -130 -111 -130 -195 0 -98 56 -174 149 -205 82
-26 191 5 191 55 0 29 -39 40 -79 24 -46 -20 -103 -8 -142 28 -18 16 -29 32
-26 36 4 3 74 6 157 6 109 0 153 3 161 13 28 34 7 131 -41 184 -59 65 -161 88
-240 54z m172 -104 c60 -64 56 -66 -92 -68 l-130 -1 16 32 c26 53 62 77 118
77 44 0 53 -4 88 -40z"/>
<path d="M11115 4269 c-171 -65 -194 -284 -40 -374 58 -34 104 -40 167 -21 93
27 149 101 150 200 2 140 -146 245 -277 195z m106 -73 c14 -3 38 -17 54 -32
36 -33 47 -119 21 -159 -51 -78 -166 -83 -219 -9 -28 38 -30 103 -4 143 20 32
88 73 111 66 6 -2 23 -6 37 -9z"/>
<path d="M9949 4264 c-11 -13 -2 -41 54 -180 l67 -164 -30 -75 c-17 -42 -30
-82 -30 -90 0 -22 34 -36 54 -22 9 7 63 124 121 262 109 261 114 285 61 285
-21 0 -30 -15 -77 -125 -29 -69 -57 -125 -61 -125 -4 0 -7 3 -6 8 2 9 -26 78
-78 190 -25 55 -49 67 -75 36z"/>
<path d="M6592 3974 c-42 -29 -24 -97 30 -109 39 -10 83 34 73 73 -12 50 -59
67 -103 36z"/>
<path d="M6822 3965 c-39 -49 6 -117 65 -98 37 12 55 48 42 82 -12 31 -26 41
-61 41 -16 0 -34 -9 -46 -25z"/>
<path d="M7062 3970 c-15 -15 -21 -29 -18 -46 10 -54 49 -74 96 -49 24 13 30
22 30 49 0 61 -63 87 -108 46z"/>
</g>
</svg>
